<?xml version="1.0" encoding="UTF-8"?>
<svg width="40px" height="40px" viewBox="0 0 40 40" version="1.1" xmlns="http://www.w3.org/2000/svg" xmlns:xlink="http://www.w3.org/1999/xlink">
    <!-- Generator: Sketch 61.1 (89650) - https://sketch.com -->
    <title>qq@3x</title>
    <desc>Created with Sketch.</desc>
    <g id="#-图标" stroke="none" stroke-width="1" fill="none" fill-rule="evenodd">
        <g id="图标" transform="translate(-227.000000, -178.000000)" fill="#2EB1F1" fill-rule="nonzero">
            <g id="qq" transform="translate(227.000000, 178.000000)">
                <path d="M20.0003906,0 C8.95441406,0 0,8.95445313 0,19.9996094 C0,31.0455859 8.95445312,40 20.0003906,40 C31.04625,40 40.0007422,31.0455469 40.0007422,19.9996094 C40,8.95449219 31.0455469,0 20.0003516,0 L20.0003906,0 Z M29.4481878,25.8895118 C28.7081814,26.5239537 27.7475825,23.8011334 27.6096441,24.2200891 C27.2733085,25.2391382 27.115013,25.9200135 26.1239464,27.0287294 C26.0711812,27.0878604 27.2701426,27.5214201 27.6096441,28.4457642 C27.9345075,29.3319812 28.5676898,30.7363184 24.4271539,31.1768907 C21.9974018,31.4349976 20.242159,29.8825435 20.0667063,29.8971475 C19.7424556,29.9257428 19.8867599,29.8971475 19.5383735,29.8971475 C19.2535776,29.8971475 19.234514,29.9181174 18.9662285,29.8971475 C18.8924934,29.8914284 18.0851179,31.1768907 14.4735275,31.1768907 C11.6743849,31.1768907 10.9496635,29.4152821 11.5122766,28.4457642 C12.0755366,27.4769272 13.0145188,27.1946504 12.8822654,27.0414611 C12.2306663,26.2862039 11.7805621,25.4781816 11.5122766,24.7483878 C11.446167,24.5665352 11.3902359,24.3898228 11.3463556,24.220055 C11.244638,23.8303756 10.465245,26.5087028 9.62859322,25.8894777 C8.79197552,25.2709335 8.86639146,23.6968626 9.40800066,22.1895482 C9.95471617,20.6707957 11.3311048,19.2079743 11.3463556,18.8850172 C11.401674,17.6834686 11.2280935,17.483846 11.3463556,17.1685484 C11.6101816,16.4615969 11.9318791,16.7330483 11.9318791,16.3662451 C11.9318791,11.7457161 15.3654635,8 19.6013172,8 C23.8365582,8 27.2701426,11.7457501 27.2701426,16.3662451 C27.2701426,16.5436042 27.7304253,16.3662451 27.9504051,17.1685484 C27.9955449,17.3344694 28.0273402,17.9739836 27.9732814,18.8850172 C27.947852,19.3223896 29.1398348,19.8551479 29.7558599,22.1895482 C30.3731787,24.5245953 29.7565067,25.6256858 29.4481878,25.8895118 L29.4481878,25.8895118 Z" id="形状"></path>
            </g>
        </g>
    </g>
</svg>