<?xml version="1.0" encoding="UTF-8"?>
<svg width="40px" height="40px" viewBox="0 0 40 40" version="1.1" xmlns="http://www.w3.org/2000/svg" xmlns:xlink="http://www.w3.org/1999/xlink">
    <!-- Generator: Sketch 61.1 (89650) - https://sketch.com -->
    <title>wechat@3x</title>
    <desc>Created with Sketch.</desc>
    <g id="#-图标" stroke="none" stroke-width="1" fill="none" fill-rule="evenodd">
        <g id="图标" transform="translate(-152.000000, -178.000000)" fill="#4CB202" fill-rule="nonzero">
            <g id="wechat" transform="translate(152.000000, 178.000000)">
                <path d="M22.6484375,19.9947266 C22.1926953,19.9947266 21.7367188,20.4180078 21.7367188,20.9390625 C21.7367188,21.3623828 22.1924609,21.7857422 22.6484375,21.7857422 C23.3325391,21.7857422 23.8209766,21.3623828 23.8209766,20.9390625 C23.8209766,20.4180469 23.3325391,19.9947266 22.6484766,19.9947266 L22.6484375,19.9947266 Z M19.6523438,15.5979687 C20.3688281,15.5979687 20.8248438,15.1421875 20.8248438,14.4580469 C20.8248438,13.7415625 20.3688672,13.3182422 19.6523438,13.3182422 C18.9684375,13.3182422 18.3170312,13.7416016 18.3170312,14.4580859 C18.3170312,15.1422266 18.9684375,15.5979297 19.6523438,15.5979297 L19.6523438,15.5979687 Z M20.0105078,0.021875 C8.97082031,0.021875 0.021484375,8.97121094 0.021484375,20.0109766 C0.021484375,31.0506641 8.97078125,40 20.0105078,40 C31.0501953,40 39.9995703,31.0506641 39.9995703,20.0109766 C39.9995703,8.97121094 31.0502344,0.021875 20.0105078,0.021875 L20.0105078,0.021875 Z M16.2327734,25.0751563 C15.0276172,25.0751563 14.1483203,24.8798828 13.0084375,24.5541016 L9.71914062,26.2152344 L10.66375,23.4142578 C8.35144531,21.7860156 6.9834375,19.7341797 6.9834375,17.2264453 C6.9834375,12.7972266 11.1521484,9.41015625 16.2328125,9.41015625 C20.7270703,9.41015625 24.7329687,12.0807812 25.5145312,15.85875 C25.1889062,15.7934375 24.8957031,15.7610547 24.6352344,15.7610547 C20.2059766,15.7610547 16.7864844,19.0828516 16.7864844,23.08875 C16.7864844,23.7725781 16.8841797,24.3913281 17.0470312,25.0428125 C16.7864844,25.0751953 16.4932812,25.0751953 16.2327344,25.0751953 L16.2327734,25.0751563 Z M29.8135156,28.2667969 L30.4647656,30.6117969 L27.9896484,29.2114062 C27.0452734,29.4066797 26.1332813,29.6998437 25.1888672,29.6998437 C20.8247656,29.6998437 17.3726172,26.7036719 17.3726172,22.9909766 C17.3726172,19.2782812 20.8248047,16.2820703 25.1889063,16.2820703 C29.3249219,16.2820703 33.0376172,19.2782812 33.0376172,22.9909766 C33.0376172,25.0751562 31.6372266,26.9315234 29.8135156,28.2667578 L29.8135156,28.2667969 Z M13.2039062,13.3182422 C12.52,13.3182422 11.8035156,13.7416016 11.8035156,14.4580859 C11.8035156,15.1421875 12.52,15.5981641 13.2039062,15.5981641 C13.8553516,15.5981641 14.3764063,15.1421875 14.3764063,14.4580469 C14.3764063,13.7416016 13.8553125,13.3182422 13.2039062,13.3182422 Z M27.7617578,19.9947266 C27.2731641,19.9947266 26.8498047,20.4180078 26.8498047,20.9390625 C26.8498047,21.3623828 27.2731641,21.7857422 27.7617578,21.7857422 C28.4130078,21.7857422 28.9016016,21.3623828 28.9016016,20.9390625 C28.9016016,20.4180469 28.4130078,19.9947266 27.7617578,19.9947266 L27.7617578,19.9947266 Z" id="形状"></path>
            </g>
        </g>
    </g>
</svg>