<?xml version="1.0" standalone="no"?><!DOCTYPE svg PUBLIC "-//W3C//DTD SVG 1.1//EN" "http://www.w3.org/Graphics/SVG/1.1/DTD/svg11.dtd"><svg t="1582416163123" class="icon" viewBox="0 0 1024 1024" version="1.1" xmlns="http://www.w3.org/2000/svg" p-id="3980" xmlns:xlink="http://www.w3.org/1999/xlink" width="16" height="16"><defs><style type="text/css"></style></defs><path d="M938.666667 896H85.333333c-46.933333 0-85.333333-38.4-85.333333-85.333333V213.333333c0-46.933333 38.4-85.333333 85.333333-85.333333h853.333334c46.933333 0 85.333333 38.4 85.333333 85.333333v597.333334c0 46.933333-38.4 85.333333-85.333333 85.333333zM106.666667 213.333333c-12.8 0-21.333333 8.533333-21.333334 21.333334v554.666666c0 12.8 8.533333 21.333333 21.333334 21.333334h810.666666c12.8 0 21.333333-8.533333 21.333334-21.333334v-554.666666c0-12.8-8.533333-21.333333-21.333334-21.333334h-810.666666z m554.666666 426.666667V384H810.666667c34.133333 0 64 29.866667 64 64V512c0 34.133333-29.866667 64-64 64h-85.333334V640h-64z m64-119.466667h51.2c17.066667 0 34.133333-12.8 34.133334-34.133333V469.333333c0-17.066667-12.8-34.133333-34.133334-34.133333H725.333333v85.333333zM448 640v-64h34.133333v-128h-34.133333V384h128v64h-34.133333v128h34.133333V640h-128zM213.333333 640L149.333333 384H213.333333l42.666667 192L298.666667 384h64L298.666667 640H213.333333z" p-id="3981" fill="#FFAB00"></path></svg>