<?xml version="1.0" encoding="UTF-8"?>
<svg width="40px" height="40px" viewBox="0 0 40 40" version="1.1" xmlns="http://www.w3.org/2000/svg" xmlns:xlink="http://www.w3.org/1999/xlink">
    <!-- Generator: Sketch 61.1 (89650) - https://sketch.com -->
    <title>weibo@3x</title>
    <desc>Created with Sketch.</desc>
    <g id="#-图标" stroke="none" stroke-width="1" fill="none" fill-rule="evenodd">
        <g id="图标" transform="translate(-69.000000, -178.000000)" fill-rule="nonzero">
            <g id="weibo" transform="translate(69.000000, 178.000000)">
                <path d="M0,20 C0,31.045695 8.954305,40 20,40 C31.045695,40 40,31.045695 40,20 C40,8.954305 31.045695,0 20,0 C8.954305,0 0,8.954305 0,20 Z" id="路径" fill="#F38422"></path>
                <path d="M25.4545455,19.6636364 C25.1454546,19.5727273 24.9363636,19.5090909 25.1,19.0909091 C25.4685357,18.3910035 25.4685357,17.5544511 25.1,16.8545455 C24.3909091,15.8090909 22.4545455,15.8727273 20.2363636,16.8545455 C20.2363636,16.8545455 19.5363636,17.1727273 19.7181818,16.6 C20.0636364,15.4727273 20.0090909,14.5272727 19.4727273,13.9727273 C18.2636364,12.7363636 15.0636364,14.0181818 12.3181818,16.8454545 C10.2818182,18.9363636 9.0909091,21.1818182 9.0909091,23.1181818 C9.0909091,26.8363636 13.7181818,29.0909091 18.2454545,29.0909091 C24.1818182,29.0909091 28.1272727,25.5454546 28.1272727,22.7272727 C28.0211562,21.2235084 26.9300119,19.972775 25.4545455,19.6636364 Z M18.2272727,27.7636364 C14.5909091,28.1272727 11.5,26.4545455 11.2636364,24.0090909 C11.0272727,21.5636363 13.7636364,19.2909091 17.3818182,18.9272727 C21,18.5636364 24.1090909,20.2363636 24.3454545,22.6818182 C24.5818182,25.1272727 21.8454545,27.4 18.2272727,27.7636364 Z M29.4181818,12.8727273 C28.0645562,11.3218996 25.9770335,10.6260587 23.9636364,11.0545455 C23.5220316,11.181974 23.2450094,11.6189668 23.3181818,12.0727273 C23.4096482,12.5113869 23.8305786,12.8000249 24.2727273,12.7272727 C25.7137578,12.4108129 27.2126401,12.9057927 28.1818182,14.0181818 C29.1772843,15.1600855 29.501572,16.7401254 29.0363636,18.1818182 C28.9152657,18.6262323 29.1456901,19.0909867 29.5727273,19.2636364 C29.7860645,19.3342977 30.0189689,19.3151243 30.2178782,19.2105254 C30.4167875,19.1059266 30.564582,18.9249049 30.6272727,18.7090909 C31.2741876,16.686142 30.815531,14.472176 29.4181818,12.8727273 L29.4181818,12.8727273 Z M27.2181818,14.9090909 C26.5639261,14.1293556 25.5299058,13.7788403 24.5363636,14 C24.3398584,14.042876 24.1694429,14.164265 24.0647034,14.3359691 C23.9599639,14.5076732 23.9300166,14.7147477 23.9818182,14.9090909 C24.018993,15.0979147 24.1303958,15.2639187 24.2910464,15.3698798 C24.4516971,15.4758408 24.6481533,15.5128927 24.8363636,15.4727273 C25.3196639,15.3683553 25.8214375,15.5356132 26.1454545,15.9090909 C26.4697386,16.2837305 26.5795274,16.7983655 26.4363636,17.2727273 C26.326767,17.6506287 26.5297516,18.0486377 26.9,18.1818182 C27.0832205,18.2414743 27.2827282,18.2250029 27.4536841,18.1361058 C27.62464,18.0472087 27.7527029,17.8933435 27.8090909,17.7090909 C28.107416,16.7362737 27.8841639,15.6784017 27.2181818,14.9090909 L27.2181818,14.9090909 Z M18.6181818,20.8 C16.866609,20.3567791 15.0403882,21.177637 14.2090909,22.7818182 C13.8354845,23.5207763 13.8104911,24.387759 14.140907,25.1470127 C14.471323,25.9062663 15.1227986,26.4788598 15.9181818,26.7090909 C17.7605978,27.2892391 19.7483768,26.4195858 20.5727273,24.6727273 C20.9217478,23.9038259 20.9026311,23.0180162 20.5207633,22.2648882 C20.1388956,21.5117602 19.4356186,20.9728487 18.6090909,20.8 L18.6181818,20.8 Z M17.2727273,24.8636364 C16.9342323,25.4375175 16.2266998,25.6772279 15.6090909,25.4272727 C15.3445617,25.2978871 15.1505079,25.0584851 15.0786747,24.7729044 C15.0068416,24.4873238 15.0645324,24.1845996 15.2363636,23.9454545 C15.5741761,23.3925693 16.2562199,23.1563306 16.8636364,23.3818182 C17.1342471,23.5042081 17.336453,23.7405534 17.4154904,24.0268445 C17.4945279,24.3131356 17.4422177,24.6197461 17.2727273,24.8636364 L17.2727273,24.8636364 Z M18.4272727,23.3454545 C18.3041591,23.5670855 18.0387588,23.6670915 17.8,23.5818182 C17.6988432,23.5360456 17.6226212,23.4485074 17.5911976,23.3420162 C17.5597739,23.235525 17.5762615,23.1206299 17.6363636,23.0272727 C17.7553949,22.8114141 18.0119758,22.7118453 18.2454545,22.7909091 C18.3481708,22.8348956 18.4264642,22.9216689 18.4596933,23.0283519 C18.4929224,23.1350348 18.4777521,23.2509198 18.4181818,23.3454545 L18.4272727,23.3454545 Z" id="形状" fill="#FFFFFF"></path>
            </g>
        </g>
    </g>
</svg>