<?xml version="1.0" encoding="UTF-8"?>
<svg width="72px" height="71px" viewBox="0 0 72 71" version="1.1" xmlns="http://www.w3.org/2000/svg" xmlns:xlink="http://www.w3.org/1999/xlink">
    <!-- Generator: Sketch 61.2 (89653) - https://sketch.com -->
    <title>logo_dark</title>
    <desc>Created with Sketch.</desc>
    <g id="页面-1" stroke="none" stroke-width="1" fill="none" fill-rule="evenodd">
        <g id="logo_dark" fill-rule="nonzero">
            <g id="编组">
                <g id="logo" fill="#FFFFFF" fill-opacity="0.25">
                    <g id="果树苗木">
                        <path d="M46.3150927,47.785939 L39.2996387,50.618895 L40.1719665,67 L31.9914702,67 C31.9914702,67 32.2578523,60.0353056 33.0003002,53.0908203 C33.0332548,52.815011 30.1180048,50.8947043 30.1509594,50.618895 L25.84059,47.6539445 C23.0255764,49.9482692 19.523887,51.1965944 15.9154382,51.1921844 C11.6931378,51.1921849 7.64388514,49.4870356 4.65899516,46.4520711 C1.67410518,43.4171066 -0.00175507636,39.3010986 7.1942452e-14,35.0100561 C0.00183562969,26.3616304 6.69520241,19.2434267 15.1962524,18.8495986 C16.4834205,8.22305859 25.3927951,0 36.1902747,0 C47.001324,0 55.912637,8.234879 57.1998052,18.8732394 C65.5359612,19.4709399 71.9986355,26.5171225 72,35.0100561 C71.9789766,43.9383986 64.8569048,51.1823341 56.0657791,51.1823341 C52.5340061,51.1857251 49.1018545,49.9909189 46.3150927,47.785939 Z" id="Shape"></path>
                    </g>
                </g>
                <g id="logo">
                    <g id="果树苗木">
                        <path d="M61.8493557,25.9149344 C63.5953784,25.9149344 65,27.3571754 65,29.1449951 C65,30.9328147 63.5836732,32.3750608 61.8493557,32.3750608 C61.012758,32.3761206 60.2101829,32.0360256 59.6189847,31.4299254 C59.0277865,30.8238252 58.696636,30.0016176 58.698692,29.1449951 C58.698692,27.3571754 60.103333,25.9149344 61.8493557,25.9149344 L61.8493557,25.9149344 Z M58.3143912,36.3981494 C60.060414,36.3981494 61.4650356,37.8403904 61.4650356,39.6282101 C61.4650356,41.4180272 60.0487088,42.8602733 58.3143912,42.8602733 C57.4774545,42.861335 56.6745823,42.5209661 56.0833276,41.9144331 C55.4920729,41.3079002 55.1611519,40.4851782 55.1637167,39.6282101 C55.1637167,37.8403904 56.5800737,36.3981494 58.3143912,36.3981494 L58.3143912,36.3981494 Z M49.049741,27.8825348 C50.7957638,27.8825348 52.2003854,29.3347637 52.2003854,31.1225832 C52.2003854,32.9124004 50.7840586,34.3646293 49.049741,34.3646293 C48.2122462,34.3625134 47.4099032,34.0196881 46.819352,33.4116282 C46.2288007,32.8035682 45.898457,31.9801248 45.9010176,31.1225832 C45.9010176,29.3347636 47.3056692,27.8825348 49.049741,27.8825348 Z M47.9962748,13.2723517 C49.7422975,13.2723517 51.1469192,14.7265794 51.1469192,16.514399 C51.1469192,18.3022187 49.7305924,19.7564451 47.9962748,19.7564451 C46.2528066,19.7498386 44.8434675,18.2996138 44.8455335,16.514399 C44.8409548,15.655866 45.170894,14.8308814 45.7623185,14.2222994 C46.353743,13.6137174 47.1578003,13.2718077 47.9962748,13.2723517 L47.9962748,13.2723517 Z M37.7659473,7.00200005 C39.51197,7.00200005 40.9165916,8.44424112 40.9165916,10.2320608 C40.9165916,12.0218779 39.5002648,13.464124 37.7659473,13.464124 C36.9286713,13.465188 36.1255016,13.1245451 35.5341903,12.5175792 C34.942879,11.9106133 34.6121878,11.0873769 34.6152596,10.2300632 C34.6132276,9.37344067 34.9443781,8.55123305 35.5355763,7.94513288 C36.1267745,7.3390327 36.9293495,6.99893769 37.7659473,6.99999752 L37.7659473,7.00200005 Z M26.8333089,12.3894297 C28.5793317,12.3894297 29.9839532,13.8316708 29.9839532,15.6194904 C29.9839532,17.4093076 28.5676264,18.8515537 26.8333089,18.8515537 C25.9963722,18.8526154 25.1935,18.5122465 24.6022453,17.9057135 C24.0109906,17.2991805 23.6800696,16.4764586 23.6826344,15.6194904 C23.6826344,13.8316708 25.0872862,12.3894297 26.8333089,12.3894297 Z M37.0636365,18.6617801 C38.8096592,18.6617801 40.2142808,20.114009 40.2142808,21.9018287 C40.2142808,23.6896483 38.797954,25.1438747 37.0636365,25.1438747 C36.2258033,25.1422882 35.422959,24.7996963 34.8319859,24.1915789 C34.2410129,23.5834615 33.9104016,22.7597156 33.9129621,21.9018287 C33.9129621,20.114009 35.3293189,18.6597826 37.0636365,18.6597826 L37.0636365,18.6617801 Z M36.1506742,28.9999846 C37.8966969,28.9999846 39.3013185,30.4422567 39.3013185,32.2300763 C39.3013185,34.017896 37.8849916,35.460142 36.1506742,35.460142 C35.3140764,35.4612018 34.5115014,35.1211068 33.9203032,34.5150067 C33.329105,33.9089065 32.9979545,33.0866989 32.9999707,32.2300763 C32.9963863,31.3729656 33.3270326,30.5498245 33.9185715,29.9433751 C34.5101104,29.3369256 35.3135977,28.9973456 36.1506742,28.9999846 Z M30.1506742,36.9999846 C31.8966969,36.9999846 33.3013185,38.4422567 33.3013185,40.2300763 C33.3013185,42.017896 31.8849916,43.460142 30.1506742,43.460142 C29.3140764,43.4612018 28.5115014,43.1211068 27.9203032,42.5150067 C27.329105,41.9089065 26.9979545,41.0866989 26.9999707,40.2300763 C26.9963863,39.3729656 27.3270326,38.5498245 27.9185715,37.9433751 C28.5101104,37.3369256 29.3135977,36.9973456 30.1506742,36.9999846 Z M42.1506742,38.9999846 C43.8966969,38.9999846 45.3013185,40.4422567 45.3013185,42.2300763 C45.3013185,44.017896 43.8849916,45.460142 42.1506742,45.460142 C41.3140764,45.4612018 40.5115014,45.1211068 39.9203032,44.5150067 C39.329105,43.9089065 38.9979545,43.0866989 38.9999707,42.2300763 C38.9963863,41.3729656 39.3270326,40.5498245 39.9185715,39.9433751 C40.5101104,39.3369256 41.3135977,38.9973456 42.1506742,38.9999846 Z M20.949505,27.3012437 C22.6955277,27.3012437 24.1001493,28.7434847 24.1001493,30.5313044 C24.1001493,32.319124 22.6838225,33.7613701 20.949505,33.7613701 C20.1129073,33.7624299 19.3103322,33.4223349 18.719134,32.8162347 C18.1279358,32.2101345 17.7967853,31.3879269 17.7988413,30.5313044 C17.7988413,28.7434847 19.2034823,27.3012437 20.949505,27.3012437 L20.949505,27.3012437 Z M9.15068328,27.4910123 C10.8947552,27.4910123 12.2993767,28.9332533 12.2993767,30.721073 C12.2993767,32.5088926 10.8850008,33.9511387 9.15068328,33.9511387 C8.31408555,33.9521985 7.51151053,33.6121035 6.92031232,33.0060033 C6.32911411,32.3999031 5.99796361,31.5776955 5.99996181,30.721073 C5.99587373,29.8636169 6.32628971,29.0399605 6.91788551,28.4330776 C7.50948131,27.8261947 8.31326712,27.4863411 9.15068328,27.4889835 L9.15068328,27.4910123 Z M13.5186664,36.9914258 C15.2646891,36.9914258 16.6693107,38.4436547 16.6693107,40.2334719 C16.6693107,42.0212915 15.2529839,43.4735204 13.5186664,43.4735204 C12.6811722,43.471933 11.8786243,43.1296155 11.2877075,42.5219305 C10.6967906,41.9142455 10.3659501,41.0910132 10.3680027,40.2334719 C10.3680027,38.4436547 11.7843488,36.9914258 13.5186664,36.9914258 L13.5186664,36.9914258 Z" id="Shape" fill="#F5A623"></path>
                        <path d="M46.3147925,47.785939 L39.2993385,50.618895 L40.1716663,67 L31.99117,67 C31.99117,67 32.2575521,60.0353056 33,53.0908203 C33.0329546,52.815011 30.1177046,50.8947043 30.1506592,50.618895 L25.8402898,47.6539445 C23.0252762,49.9482692 19.5235868,51.1965944 15.915138,51.1921844 C11.6928376,51.1921849 7.64358495,49.4870356 4.65869497,46.4520711 C1.67380499,43.4171066 -0.00205526585,39.3010986 -0.000300189494,35.0100561 C0.00153544019,26.3616304 6.69490222,19.2434267 15.1959522,18.8495986 C16.4831203,8.22305859 25.3924949,0 36.1899746,0 C47.0010238,0 55.9123368,8.234879 57.199505,18.8732394 C65.535661,19.4709399 71.9983353,26.5171225 71.9996998,35.0100561 C71.9786764,43.9383986 64.8566046,51.1823341 56.0654789,51.1823341 C52.5337059,51.1857251 49.1015543,49.9909189 46.3147925,47.785939 Z M55.0962257,49.3324414 C62.6854776,49.3324414 70.0925098,44.5491193 70.0925098,34.8031991 C70.0925098,25.0572789 62.8851437,21.1900379 55.7475638,20.6857009 C54.2704221,8.73330587 45.2331061,1.79276074 35.9011371,1.79276074 C26.5788607,1.79276074 17.9098609,10.0118792 16.9503003,20.1459025 C9.65182435,20.4788438 2.18275991,27.3051251 2.18275991,34.8031991 C2.18275991,42.5219207 8.39567236,48.8478049 15.9849242,48.847805 C19.2241681,48.847805 23.547037,47.0905055 25.9003835,45.1775707 L35.0656409,50.5361522 C35.7402411,50.1244082 37.2076903,49.3738128 39.462173,48.2784557 L46.155835,45.1775707 C48.4820425,47.0156429 51.922891,49.3324414 55.0962257,49.3324414 L55.0962257,49.3324414 Z" id="Shape" fill="#61C1BE"></path>
                    </g>
                </g>
            </g>
            <path d="M36.9550781,67 C48.8914134,67 60.573054,68.3333333 72,71 L0,71 C12.7003835,68.3333333 25.0187428,67 36.9550781,67 Z" id="矩形" fill-opacity="0.25" fill="#000000"></path>
        </g>
    </g>
</svg>