<?xml version="1.0" encoding="UTF-8"?>
<svg width="72px" height="72px" viewBox="0 0 72 72" version="1.1" xmlns="http://www.w3.org/2000/svg" xmlns:xlink="http://www.w3.org/1999/xlink">
    <title>编组</title>
    <defs>
        <linearGradient x1="50%" y1="17.4520283%" x2="50%" y2="100%" id="linearGradient-1">
            <stop stop-color="#EAECD1" offset="0%"></stop>
            <stop stop-color="#E4ED98" offset="100%"></stop>
        </linearGradient>
        <linearGradient x1="50%" y1="17.4520283%" x2="50%" y2="100%" id="linearGradient-2">
            <stop stop-color="#EAECD1" offset="0%"></stop>
            <stop stop-color="#E4ED98" offset="100%"></stop>
        </linearGradient>
    </defs>
    <g id="功能页面" stroke="none" stroke-width="1" fill="none" fill-rule="evenodd">
        <g id="1-Splash" transform="translate(-148.000000, -273.000000)">
            <g id="编组" transform="translate(148.000000, 273.000000)">
                <rect id="矩形" fill="#4A90E2" x="0" y="0" width="72" height="72" rx="36"></rect>
                <g id="编组-4" transform="translate(17.000000, 14.000000)">
                    <rect id="矩形" fill="#807F7F" x="5.4" y="23.1000038" width="26.7" height="6.3"></rect>
                    <path d="M35.1439761,3.75785067e-06 L2.55440825,3.75785067e-06 C1.14730737,-0.00238522675 0.00418391743,1.13459485 7.10542736e-15,2.54069163 L7.10542736e-15,43.2154012 C7.10542736e-15,43.8283701 0.520201979,44.3427874 1.15636556,44.3427874 C1.46306797,44.3427874 1.79578045,44.2063315 2.00928001,43.966992 C4.98526865,40.7938492 6.40715388,38.8910465 7.06824381,38.5347447 C7.56568695,38.6961093 8.49121285,40.1527226 8.96264593,40.8869857 C9.97920725,42.487636 11.06838,44.1554312 12.6734197,44.2052485 C14.2860458,44.2052485 15.3947262,42.627341 16.6020281,40.934637 C17.1894228,40.0855777 18.3046057,38.515251 18.8248077,38.5152511 C19.2723981,38.5152511 20.1990078,39.8787278 20.7679787,40.7039615 L37.6994681,24.856658 L37.6994681,2.49195731 C37.6983844,1.12739758 36.5658614,3.75785067e-06 35.1439761,3.75785067e-06 Z M6.58244681,26.7266073 C6.58244681,25.8726465 7.31317996,25.1675313 8.18510194,25.1675313 L29.3979186,25.1675313 C30.2924739,25.1675313 30.9973404,25.8487443 30.9973404,26.7266073 C30.9973404,27.5957786 30.292474,28.2835104 29.4205519,28.2835104 L8.18510194,28.2835104 C7.28946881,28.2835104 6.58244681,27.6012109 6.58244681,26.7266073 L6.58244681,26.7266073 Z M28.4340289,20.1340265 C26.014468,20.1340265 24.4148936,18.0535861 24.4148936,14.0332026 C24.4148936,9.99768862 26.014468,8.02964605 28.4340289,8.02964605 C30.8339364,8.02964605 32.4335106,10.0138998 32.4335106,14.0332026 C32.4335106,18.0535861 30.8339363,20.1340265 28.4340289,20.1340265 Z M28.4906385,9.70748097 C27.4583637,9.70748097 26.6888298,10.6538901 26.6888298,13.9230084 C26.6888298,17.2105351 27.4572644,18.2165009 28.4906385,18.2165009 C29.5042247,18.2165009 30.2792553,17.204038 30.2792553,13.9230084 C30.2792553,10.6603872 29.5042247,9.70748097 28.4906385,9.70748097 Z M18.9792443,20.1340265 C16.5601165,20.1340265 14.9601064,18.0535861 14.9601064,14.0332026 C14.9666593,9.99768862 16.5666693,8.02964605 18.9792443,8.02964605 C21.3798055,8.02964605 22.9787234,10.0138998 22.9787234,14.0332026 C22.9787234,18.0535861 21.3798055,20.1340265 18.9792443,20.1340265 Z M19.0347486,9.70748097 C18.0042042,9.70748097 17.2340426,10.6529277 17.2340426,13.9224619 C17.2340426,17.2039091 18.0107962,18.2165009 19.0347486,18.2165009 C20.0466158,18.2165009 20.8244681,17.2039091 20.8244681,13.9224619 C20.8244681,10.6529276 20.0543064,9.70748097 19.0347486,9.70748097 Z M6.22448764,19.8878721 L6.22448764,18.0177026 L8.74865552,18.0177026 L8.74865552,10.6695312 L6.61557117,10.6695312 L6.61557117,9.23889468 C7.79423842,9.02236006 8.6002388,8.72071986 9.34665583,8.26933675 L11.07999,8.26933675 L11.07999,18.0241664 L13.2845745,18.0241664 L13.2845745,19.8943358 L6.22340426,19.8943358 L6.22340426,19.8878721 L6.22448764,19.8878721 Z" id="形状" fill="#FFFFFF" fill-rule="nonzero"></path>
                    <g id="编组-3" transform="translate(34.705228, 36.299085) rotate(-1.000000) translate(-34.705228, -36.299085) translate(23.705228, 25.799085)">
                        <path d="M0.916407033,20.3737097 C0.964228947,20.3737097 1.08160996,20.3737097 1.15660342,20.3007801 L5.83119509,19.045962 C6.02248275,18.9762498 6.21268349,18.9086827 6.33006459,18.7907084 L17.712766,8.38108005 L13.3946649,3.95489659 L1.95870723,14.2980303 C1.8127561,14.4178717 1.71330183,14.5838375 1.67721011,14.7677827 L0.0860447658,19.211126 C-0.0679777089,19.5110712 -0.0116236058,19.8744706 0.226249872,20.1152387 C0.393626526,20.2804027 0.675123736,20.3737097 0.916407033,20.3737097 Z" id="路径" fill="url(#linearGradient-1)"></path>
                        <path d="M21.007513,0.856047361 C19.8048537,-0.349755599 17.5238722,-0.27690726 16.0857426,1.04414824 L14.9601064,2.06293757 L19.4010331,6.59149431 L20.5266693,5.57379223 C21.9890062,4.20489594 22.205771,2.07924697 21.007513,0.856047361 L21.007513,0.856047361 Z" id="路径" fill="url(#linearGradient-2)"></path>
                    </g>
                </g>
            </g>
        </g>
    </g>
</svg>